<svg width="64" height="88" viewBox="0 0 64 88" fill="none" xmlns="http://www.w3.org/2000/svg">
<path d="M4 22C4 19.3478 5.05357 16.8043 6.92893 14.9289C8.8043 13.0536 11.3478 12 14 12H50C52.6522 12 55.1957 13.0536 57.0711 14.9289C58.9464 16.8043 60 19.3478 60 22V38C60 39.3132 59.7413 40.6136 59.2388 41.8268C58.7362 43.0401 57.9997 44.1425 57.0711 45.0711C56.1425 45.9997 55.0401 46.7362 53.8268 47.2388C52.6136 47.7413 51.3132 48 50 48H14C11.3478 48 8.8043 46.9464 6.92893 45.0711C5.05357 43.1957 4 40.6522 4 38V22ZM14 16C12.4087 16 10.8826 16.6321 9.75736 17.7574C8.63214 18.8826 8 20.4087 8 22V38C8 39.5913 8.63214 41.1174 9.75736 42.2426C10.8826 43.3679 12.4087 44 14 44H50C51.5913 44 53.1174 43.3679 54.2426 42.2426C55.3679 41.1174 56 39.5913 56 38V22C56 20.4087 55.3679 18.8826 54.2426 17.7574C53.1174 16.6321 51.5913 16 50 16H14ZM28 30C28 29.4696 28.2107 28.9609 28.5858 28.5858C28.9609 28.2107 29.4696 28 30 28H48C48.5304 28 49.0391 28.2107 49.4142 28.5858C49.7893 28.9609 50 29.4696 50 30C50 30.5304 49.7893 31.0391 49.4142 31.4142C49.0391 31.7893 48.5304 32 48 32H30C29.4696 32 28.9609 31.7893 28.5858 31.4142C28.2107 31.0391 28 30.5304 28 30ZM24 30C24 31.5913 23.3679 33.1174 22.2426 34.2426C21.1174 35.3679 19.5913 36 18 36C16.4087 36 14.8826 35.3679 13.7574 34.2426C12.6321 33.1174 12 31.5913 12 30C12 28.4087 12.6321 26.8826 13.7574 25.7574C14.8826 24.6321 16.4087 24 18 24C19.5913 24 21.1174 24.6321 22.2426 25.7574C23.3679 26.8826 24 28.4087 24 30Z" fill="#8D53C4"/>
<path d="M11.8177 82.438C11.8177 82.97 11.6777 83.4273 11.3977 83.81C11.1271 84.1927 10.7584 84.4867 10.2917 84.692C9.82508 84.8973 9.31174 85 8.75174 85H4.00574V75.06H9.12974C9.59641 75.06 9.99774 75.186 10.3337 75.438C10.6791 75.6807 10.9404 75.998 11.1177 76.39C11.3044 76.7727 11.3977 77.174 11.3977 77.594C11.3977 78.0793 11.2717 78.5367 11.0197 78.966C10.7771 79.386 10.4271 79.6987 9.96974 79.904C10.5391 80.072 10.9871 80.38 11.3137 80.828C11.6497 81.2667 11.8177 81.8033 11.8177 82.438ZM10.2077 82.144C10.2077 81.864 10.1471 81.612 10.0257 81.388C9.91374 81.1547 9.75508 80.968 9.54974 80.828C9.35374 80.6787 9.12041 80.604 8.84974 80.604H5.57374V83.642H8.75174C9.03174 83.642 9.27908 83.5767 9.49374 83.446C9.71774 83.306 9.89041 83.124 10.0117 82.9C10.1424 82.6667 10.2077 82.4147 10.2077 82.144ZM5.57374 76.418V79.344H8.45774C8.71908 79.344 8.95241 79.2833 9.15774 79.162C9.36308 79.0313 9.52641 78.8587 9.64774 78.644C9.76908 78.42 9.82974 78.168 9.82974 77.888C9.82974 77.5987 9.77374 77.3467 9.66174 77.132C9.54974 76.908 9.39574 76.7353 9.19974 76.614C9.01308 76.4833 8.79374 76.418 8.54174 76.418H5.57374ZM17.597 85.07C16.8037 85.07 16.1317 84.9347 15.581 84.664C15.0397 84.3933 14.601 84.0247 14.265 83.558C13.9383 83.0913 13.6957 82.5593 13.537 81.962C13.3877 81.3647 13.313 80.744 13.313 80.1V75.06H14.881V80.1C14.881 80.5573 14.9277 81.0007 15.021 81.43C15.1143 81.85 15.2637 82.228 15.469 82.564C15.6743 82.9 15.9497 83.166 16.295 83.362C16.6497 83.558 17.0837 83.656 17.597 83.656C18.1197 83.656 18.5537 83.558 18.899 83.362C19.2537 83.1567 19.529 82.886 19.725 82.55C19.9303 82.2047 20.0797 81.822 20.173 81.402C20.2663 80.982 20.313 80.548 20.313 80.1V75.06H21.895V80.1C21.895 80.7813 21.811 81.4253 21.643 82.032C21.4843 82.6293 21.2323 83.1567 20.887 83.614C20.551 84.062 20.1123 84.4167 19.571 84.678C19.0297 84.9393 18.3717 85.07 17.597 85.07ZM31.2744 76.446H27.9704V85H26.3884V76.446H23.0704V75.06H31.2744V76.446ZM39.9013 76.446H36.5973V85H35.0153V76.446H31.6973V75.06H39.9013V76.446ZM45.1045 85.07C44.3858 85.07 43.7372 84.93 43.1585 84.65C42.5798 84.37 42.0805 83.992 41.6605 83.516C41.2405 83.0307 40.9138 82.4893 40.6805 81.892C40.4565 81.2853 40.3445 80.6647 40.3445 80.03C40.3445 79.3673 40.4658 78.7373 40.7085 78.14C40.9512 77.5333 41.2872 76.9967 41.7165 76.53C42.1458 76.054 42.6498 75.6807 43.2285 75.41C43.8165 75.13 44.4512 74.99 45.1325 74.99C45.8418 74.99 46.4858 75.1347 47.0645 75.424C47.6525 75.7133 48.1518 76.1007 48.5625 76.586C48.9825 77.0713 49.3045 77.6127 49.5285 78.21C49.7618 78.8073 49.8785 79.4187 49.8785 80.044C49.8785 80.7067 49.7572 81.3413 49.5145 81.948C49.2812 82.5453 48.9498 83.082 48.5205 83.558C48.0912 84.0247 47.5825 84.3933 46.9945 84.664C46.4158 84.9347 45.7858 85.07 45.1045 85.07ZM41.9405 80.03C41.9405 80.4967 42.0152 80.9493 42.1645 81.388C42.3138 81.8267 42.5238 82.2187 42.7945 82.564C43.0745 82.9 43.4105 83.166 43.8025 83.362C44.1945 83.558 44.6332 83.656 45.1185 83.656C45.6225 83.656 46.0705 83.5533 46.4625 83.348C46.8545 83.1427 47.1812 82.8673 47.4425 82.522C47.7132 82.1673 47.9185 81.7753 48.0585 81.346C48.1985 80.9073 48.2685 80.4687 48.2685 80.03C48.2685 79.5633 48.1938 79.1153 48.0445 78.686C47.9045 78.2473 47.6945 77.86 47.4145 77.524C47.1345 77.1787 46.7985 76.908 46.4065 76.712C46.0238 76.516 45.5945 76.418 45.1185 76.418C44.6145 76.418 44.1665 76.5207 43.7745 76.726C43.3825 76.9313 43.0512 77.2067 42.7805 77.552C42.5098 77.8973 42.2998 78.2847 42.1505 78.714C42.0105 79.1433 41.9405 79.582 41.9405 80.03ZM53.0698 77.972V85H51.5018V75.06H52.7898L58.4178 82.242V75.074H59.9998V85H58.6278L53.0698 77.972Z" fill="#8D53C4"/>
</svg>
