<svg width="64" height="88" viewBox="0 0 64 88" fill="none" xmlns="http://www.w3.org/2000/svg">
<path d="M12.8 51.2V44.8H6.39995V51.2H3.19995V35.2H6.39995V41.6H12.8V35.2H16V51.2H12.8ZM22.4 51.2V38.4H17.9199V35.2H29.76V38.4H25.5999V51.2H22.4ZM32 51.2V35.2H35.1999L39.6799 46.08H40L44.7999 35.2H47.9999V51.2H44.7999V41.28H44.4799L40.9599 49.28H39.0399L35.52 41.28H35.1999V51.2H32ZM60.7999 51.2H51.1999V35.2H54.3999V48H60.7999V51.2ZM30.0799 13.44L22.7199 20.8L30.0799 28.16L28.16 32L16.96 20.8L28.16 9.60001L30.0799 13.44ZM33.92 28.16L41.2799 20.8L33.92 13.44L35.8399 9.60001L47.0399 20.8L35.8399 32L33.92 28.16Z" fill="#8D53C4"/>
<path d="M21.5877 75.06V85H20.0057V80.618H14.9937V85H13.4257V75.06H14.9937V79.218H20.0057V75.06H21.5877ZM31.124 76.446H27.82V85H26.238V76.446H22.92V75.06H31.124V76.446ZM40.8149 85V77.916L37.8889 83.292H36.9649L34.0249 77.916V85H32.4569V75.06H34.1369L37.4269 81.136L40.7169 75.06H42.3969V85H40.8149ZM44.6386 85V75.06H46.2066V83.614H51.5406V85H44.6386Z" fill="#8D53C4"/>
</svg>
