<svg width="64" height="88" viewBox="0 0 64 88" fill="none" xmlns="http://www.w3.org/2000/svg">
<path fill-rule="evenodd" clip-rule="evenodd" d="M16.8533 12.5867V19.2C16.8533 19.7092 16.651 20.1976 16.291 20.5577C15.9309 20.9177 15.4425 21.12 14.9333 21.12C14.4241 21.12 13.9357 20.9177 13.5757 20.5577C13.2156 20.1976 13.0133 19.7092 13.0133 19.2V10.6667C13.0133 10.4145 13.063 10.1649 13.1595 9.93192C13.2559 9.69898 13.3974 9.48732 13.5757 9.30903C13.7539 9.13074 13.9656 8.98931 14.1986 8.89283C14.4315 8.79634 14.6812 8.74667 14.9333 8.74667H49.0666C49.5759 8.74667 50.0642 8.94896 50.4243 9.30903C50.7844 9.6691 50.9866 10.1575 50.9866 10.6667V19.2C50.9866 19.7092 50.7844 20.1976 50.4243 20.5577C50.0642 20.9177 49.5759 21.12 49.0666 21.12C48.5574 21.12 48.0691 20.9177 47.709 20.5577C47.3489 20.1976 47.1466 19.7092 47.1466 19.2V12.5867H34.3466V51.4133H39.4837C39.9929 51.4133 40.4813 51.6156 40.8413 51.9757C41.2014 52.3358 41.4037 52.8241 41.4037 53.3333C41.4037 53.8426 41.2014 54.3309 40.8413 54.691C40.4813 55.0511 39.9929 55.2533 39.4837 55.2533H24.5504C24.0412 55.2533 23.5528 55.0511 23.1927 54.691C22.8327 54.3309 22.6304 53.8426 22.6304 53.3333C22.6304 52.8241 22.8327 52.3358 23.1927 51.9757C23.5528 51.6156 24.0412 51.4133 24.5504 51.4133H29.6533V12.5867H16.8533Z" fill="#8D53C4"/>
<path d="M23.0849 76.446H19.7809V85H18.1989V76.446H14.8809V75.06H23.0849V76.446ZM31.2359 83.614V85H24.4179V75.06H31.1099V76.446H25.9859V79.274H30.4239V80.576H25.9859V83.614H31.2359ZM33.4834 75.06L36.2274 78.966L38.9714 75.06H40.7074L37.1234 80.1L40.5954 85H38.8594L36.2274 81.234L33.5954 85H31.8454L35.3174 80.1L31.7334 75.06H33.4834ZM49.1161 76.446H45.8121V85H44.2301V76.446H40.9121V75.06H49.1161V76.446Z" fill="#8D53C4"/>
</svg>
