<svg width="64" height="88" viewBox="0 0 64 88" fill="none" xmlns="http://www.w3.org/2000/svg">
<path d="M0 32H64M12.8 19.2H42.6667M12.8 6.39999H51.2M12.8 44.8H51.2M12.8 57.6H42.6667" stroke="#8D53C4" stroke-width="3"/>
<path d="M5.69422 85V75.06H9.22222C10.2956 75.06 11.1916 75.284 11.9102 75.732C12.6289 76.1707 13.1656 76.768 13.5202 77.524C13.8842 78.2707 14.0662 79.1013 14.0662 80.016C14.0662 81.024 13.8656 81.9013 13.4642 82.648C13.0722 83.3947 12.5122 83.9733 11.7842 84.384C11.0562 84.7947 10.2022 85 9.22222 85H5.69422ZM12.4702 80.016C12.4702 79.316 12.3396 78.7 12.0782 78.168C11.8262 77.6267 11.4576 77.2067 10.9722 76.908C10.4962 76.6 9.91289 76.446 9.22222 76.446H7.26222V83.614H9.22222C9.92222 83.614 10.5102 83.4553 10.9862 83.138C11.4716 82.8207 11.8402 82.3913 12.0922 81.85C12.3442 81.3087 12.4702 80.6973 12.4702 80.016ZM15.7157 85V75.06H17.2837V85H15.7157ZM20.1602 75.06L23.1562 83.082L26.1382 75.06H27.8042L23.8982 85H22.4142L18.4942 75.06H20.1602ZM29.0184 85V75.06H30.5864V85H29.0184ZM32.8329 85V75.06H36.3609C37.4342 75.06 38.3302 75.284 39.0489 75.732C39.7676 76.1707 40.3042 76.768 40.6589 77.524C41.0229 78.2707 41.2049 79.1013 41.2049 80.016C41.2049 81.024 41.0042 81.9013 40.6029 82.648C40.2109 83.3947 39.6509 83.9733 38.9229 84.384C38.1949 84.7947 37.3409 85 36.3609 85H32.8329ZM39.6089 80.016C39.6089 79.316 39.4782 78.7 39.2169 78.168C38.9649 77.6267 38.5962 77.2067 38.1109 76.908C37.6349 76.6 37.0516 76.446 36.3609 76.446H34.4009V83.614H36.3609C37.0609 83.614 37.6489 83.4553 38.1249 83.138C38.6102 82.8207 38.9789 82.3913 39.2309 81.85C39.4829 81.3087 39.6089 80.6973 39.6089 80.016ZM49.6724 83.614V85H42.8544V75.06H49.5464V76.446H44.4224V79.274H48.8604V80.576H44.4224V83.614H49.6724ZM51.2899 85V75.06H55.6159C56.0639 75.06 56.4746 75.1533 56.8479 75.34C57.2213 75.5267 57.5433 75.774 57.8139 76.082C58.0939 76.39 58.3086 76.7353 58.4579 77.118C58.6166 77.5007 58.6959 77.8927 58.6959 78.294C58.6959 78.7327 58.6166 79.1527 58.4579 79.554C58.2993 79.9553 58.0706 80.3007 57.7719 80.59C57.4826 80.8793 57.1419 81.0893 56.7499 81.22L59.0879 85H57.3239L55.1679 81.542H52.8579V85H51.2899ZM52.8579 80.156H55.6019C55.8913 80.156 56.1479 80.072 56.3719 79.904C56.5959 79.736 56.7733 79.512 56.9039 79.232C57.0346 78.9427 57.0999 78.63 57.0999 78.294C57.0999 77.9487 57.0253 77.6407 56.8759 77.37C56.7266 77.09 56.5306 76.866 56.2879 76.698C56.0546 76.53 55.7979 76.446 55.5179 76.446H52.8579V80.156Z" fill="#8D53C4"/>
</svg>
