<svg width="64" height="88" viewBox="0 0 64 88" fill="none" xmlns="http://www.w3.org/2000/svg">
<path d="M21.3333 18.6213C20.626 18.6213 19.9478 18.9023 19.4477 19.4024C18.9476 19.9025 18.6666 20.5808 18.6666 21.288C18.6666 21.9952 18.9476 22.6735 19.4477 23.1736C19.9478 23.6737 20.626 23.9547 21.3333 23.9547H42.6666C43.3739 23.9547 44.0522 23.6737 44.5522 23.1736C45.0523 22.6735 45.3333 21.9952 45.3333 21.288C45.3333 20.5808 45.0523 19.9025 44.5522 19.4024C44.0522 18.9023 43.3739 18.6213 42.6666 18.6213H21.3333ZM18.6666 32C18.6666 31.2928 18.9476 30.6145 19.4477 30.1144C19.9478 29.6143 20.626 29.3333 21.3333 29.3333H42.6666C43.3739 29.3333 44.0522 29.6143 44.5522 30.1144C45.0523 30.6145 45.3333 31.2928 45.3333 32C45.3333 32.7072 45.0523 33.3855 44.5522 33.8856C44.0522 34.3857 43.3739 34.6667 42.6666 34.6667H21.3333C20.626 34.6667 19.9478 34.3857 19.4477 33.8856C18.9476 33.3855 18.6666 32.7072 18.6666 32ZM21.3333 40.0453C20.626 40.0453 19.9478 40.3263 19.4477 40.8264C18.9476 41.3265 18.6666 42.0048 18.6666 42.712C18.6666 43.4193 18.9476 44.0975 19.4477 44.5976C19.9478 45.0977 20.626 45.3787 21.3333 45.3787H42.6666C43.3739 45.3787 44.0522 45.0977 44.5522 44.5976C45.0523 44.0975 45.3333 43.4193 45.3333 42.712C45.3333 42.0048 45.0523 41.3265 44.5522 40.8264C44.0522 40.3263 43.3739 40.0453 42.6666 40.0453H21.3333Z" fill="#8D53C4"/>
<path fill-rule="evenodd" clip-rule="evenodd" d="M58.6666 32C58.6666 46.728 46.728 58.6667 32 58.6667C17.272 58.6667 5.33331 46.728 5.33331 32C5.33331 17.272 17.272 5.33334 32 5.33334C46.728 5.33334 58.6666 17.272 58.6666 32ZM53.3333 32C53.3333 37.658 51.0857 43.0842 47.0849 47.085C43.0841 51.0857 37.6579 53.3333 32 53.3333C26.342 53.3333 20.9158 51.0857 16.915 47.085C12.9143 43.0842 10.6666 37.658 10.6666 32C10.6666 26.3421 12.9143 20.9158 16.915 16.9151C20.9158 12.9143 26.342 10.6667 32 10.6667C37.6579 10.6667 43.0841 12.9143 47.0849 16.9151C51.0857 20.9158 53.3333 26.3421 53.3333 32Z" fill="#8D53C4"/>
<path d="M20.5395 85V77.916L17.6135 83.292H16.6895L13.7495 77.916V85H12.1815V75.06H13.8615L17.1515 81.136L20.4415 75.06H22.1215V85H20.5395ZM31.1812 83.614V85H24.3632V75.06H31.0552V76.446H25.9312V79.274H30.3692V80.576H25.9312V83.614H31.1812ZM34.3667 77.972V85H32.7987V75.06H34.0867L39.7147 82.242V75.074H41.2967V85H39.9247L34.3667 77.972ZM47.6751 85.07C46.8818 85.07 46.2098 84.9347 45.6591 84.664C45.1178 84.3933 44.6791 84.0247 44.3431 83.558C44.0165 83.0913 43.7738 82.5593 43.6151 81.962C43.4658 81.3647 43.3911 80.744 43.3911 80.1V75.06H44.9591V80.1C44.9591 80.5573 45.0058 81.0007 45.0991 81.43C45.1925 81.85 45.3418 82.228 45.5471 82.564C45.7525 82.9 46.0278 83.166 46.3731 83.362C46.7278 83.558 47.1618 83.656 47.6751 83.656C48.1978 83.656 48.6318 83.558 48.9771 83.362C49.3318 83.1567 49.6071 82.886 49.8031 82.55C50.0085 82.2047 50.1578 81.822 50.2511 81.402C50.3445 80.982 50.3911 80.548 50.3911 80.1V75.06H51.9731V80.1C51.9731 80.7813 51.8891 81.4253 51.7211 82.032C51.5625 82.6293 51.3105 83.1567 50.9651 83.614C50.6291 84.062 50.1905 84.4167 49.6491 84.678C49.1078 84.9393 48.4498 85.07 47.6751 85.07Z" fill="#8D53C4"/>
</svg>
