<svg width="64" height="88" viewBox="0 0 64 88" fill="none" xmlns="http://www.w3.org/2000/svg">
<path d="M54 10H10C8.93913 10 7.92172 10.4214 7.17157 11.1716C6.42143 11.9217 6 12.9391 6 14V50C6 51.0609 6.42143 52.0783 7.17157 52.8284C7.92172 53.5786 8.93913 54 10 54H54C55.0609 54 56.0783 53.5786 56.8284 52.8284C57.5786 52.0783 58 51.0609 58 50V14C58 12.9391 57.5786 11.9217 56.8284 11.1716C56.0783 10.4214 55.0609 10 54 10ZM54 14V39.6875L47.4825 33.1725C47.1111 32.801 46.6701 32.5062 46.1847 32.3052C45.6993 32.1041 45.1791 32.0006 44.6538 32.0006C44.1284 32.0006 43.6082 32.1041 43.1228 32.3052C42.6374 32.5062 42.1964 32.801 41.825 33.1725L36.825 38.1725L25.825 27.1725C25.0749 26.4229 24.0579 26.0019 22.9975 26.0019C21.9371 26.0019 20.9201 26.4229 20.17 27.1725L10 37.3425V14H54ZM10 43L23 30L43 50H10V43ZM54 50H48.6575L39.6575 41L44.6575 36L54 45.345V50ZM36 25C36 24.4067 36.1759 23.8266 36.5056 23.3333C36.8352 22.8399 37.3038 22.4554 37.852 22.2284C38.4001 22.0013 39.0033 21.9419 39.5853 22.0576C40.1672 22.1734 40.7018 22.4591 41.1213 22.8787C41.5409 23.2982 41.8266 23.8328 41.9424 24.4147C42.0581 24.9967 41.9987 25.5999 41.7716 26.1481C41.5446 26.6962 41.1601 27.1648 40.6667 27.4944C40.1734 27.8241 39.5933 28 39 28C38.2043 28 37.4413 27.6839 36.8787 27.1213C36.3161 26.5587 36 25.7956 36 25Z" fill="#8D53C4"/>
<path d="M11.3407 85V75.06H12.9087V85H11.3407ZM23.5132 85V77.916L20.5872 83.292H19.6632L16.7232 77.916V85H15.1552V75.06H16.8352L20.1252 81.136L23.4152 75.06H25.0952V85H23.5132ZM30.2068 75.06H31.6908L35.5548 85H33.9028L32.8528 82.298H29.0168L27.9808 85H26.3148L30.2068 75.06ZM32.5448 81.136L30.9488 76.782L29.2968 81.136H32.5448ZM40.4613 85.07C39.8079 85.07 39.1966 84.9347 38.6273 84.664C38.0579 84.3933 37.5586 84.02 37.1292 83.544C36.7093 83.068 36.3779 82.5267 36.1353 81.92C35.9019 81.3133 35.7853 80.6693 35.7853 79.988C35.7853 79.3067 35.9019 78.6673 36.1353 78.07C36.3779 77.4727 36.7093 76.9407 37.1292 76.474C37.5586 76.0073 38.0579 75.6433 38.6273 75.382C39.2059 75.1207 39.8359 74.99 40.5173 74.99C41.4599 74.99 42.2533 75.1907 42.8973 75.592C43.5506 75.984 44.0406 76.5067 44.3673 77.16L43.1633 78.028C42.9019 77.4867 42.5286 77.0807 42.0433 76.81C41.5673 76.5393 41.0446 76.404 40.4753 76.404C40.0086 76.404 39.5839 76.502 39.2013 76.698C38.8186 76.894 38.4873 77.1647 38.2073 77.51C37.9366 77.846 37.7313 78.2333 37.5913 78.672C37.4513 79.1013 37.3813 79.554 37.3813 80.03C37.3813 80.534 37.4606 81.0053 37.6193 81.444C37.7779 81.8827 38.0019 82.27 38.2913 82.606C38.5806 82.9327 38.9213 83.1893 39.3133 83.376C39.7053 83.5627 40.1299 83.656 40.5873 83.656C41.1286 83.656 41.6419 83.5207 42.1273 83.25C42.6219 82.97 43.0839 82.5547 43.5132 82.004V83.6C42.6453 84.58 41.6279 85.07 40.4613 85.07ZM43.3593 81.136H41.2733V79.974H44.6753V85H43.3593V81.136ZM53.2818 83.614V85H46.4638V75.06H53.1558V76.446H48.0318V79.274H52.4698V80.576H48.0318V83.614H53.2818Z" fill="#8D53C4"/>
</svg>
