<svg width="64" height="88" viewBox="0 0 64 88" fill="none" xmlns="http://www.w3.org/2000/svg">
<path d="M40 13.3333V50.6667M24 13.3333V50.6667M10.6667 13.3333H53.3333C54.0406 13.3333 54.7189 13.6143 55.219 14.1144C55.7191 14.6145 56 15.2928 56 16V48C56 48.7072 55.7191 49.3855 55.219 49.8856C54.7189 50.3857 54.0406 50.6667 53.3333 50.6667H10.6667C9.95942 50.6667 9.28115 50.3857 8.78105 49.8856C8.28095 49.3855 8 48.7072 8 48V16C8 15.2928 8.28095 14.6145 8.78105 14.1144C9.28115 13.6143 9.95942 13.3333 10.6667 13.3333Z" stroke="#8D53C4" stroke-width="3" stroke-linecap="round" stroke-linejoin="round"/>
<path d="M1.85133 79.96C1.85133 79.3533 1.95866 78.7607 2.17333 78.182C2.38799 77.594 2.70066 77.062 3.11133 76.586C3.53133 76.1007 4.03999 75.718 4.63733 75.438C5.23466 75.1487 5.91133 75.004 6.66733 75.004C7.56333 75.004 8.338 75.2093 8.99133 75.62C9.64466 76.0213 10.13 76.5393 10.4473 77.174L9.21533 78C9.02866 77.5987 8.79066 77.2813 8.50133 77.048C8.22133 76.8147 7.91333 76.6513 7.57733 76.558C7.25066 76.4647 6.92866 76.418 6.61133 76.418C6.08866 76.418 5.63133 76.5253 5.23933 76.74C4.84733 76.9453 4.51599 77.2207 4.24533 77.566C3.98399 77.9113 3.78333 78.2987 3.64333 78.728C3.51266 79.1573 3.44733 79.5867 3.44733 80.016C3.44733 80.492 3.52666 80.954 3.68533 81.402C3.84399 81.8407 4.06333 82.2327 4.34333 82.578C4.63266 82.914 4.97333 83.18 5.36533 83.376C5.75733 83.572 6.18666 83.67 6.65333 83.67C6.97066 83.67 7.302 83.614 7.64733 83.502C7.99266 83.39 8.31 83.2173 8.59933 82.984C8.898 82.7413 9.13133 82.424 9.29933 82.032L10.6013 82.774C10.396 83.2687 10.074 83.6887 9.63533 84.034C9.206 84.3793 8.72066 84.6407 8.17933 84.818C7.64733 84.9953 7.11999 85.084 6.59733 85.084C5.89733 85.084 5.258 84.9393 4.67933 84.65C4.10066 84.3513 3.60133 83.9593 3.18133 83.474C2.76133 82.9793 2.43466 82.4287 2.20133 81.822C1.96799 81.206 1.85133 80.5853 1.85133 79.96ZM16.0586 85.07C15.3399 85.07 14.6913 84.93 14.1126 84.65C13.5339 84.37 13.0346 83.992 12.6146 83.516C12.1946 83.0307 11.8679 82.4893 11.6346 81.892C11.4106 81.2853 11.2986 80.6647 11.2986 80.03C11.2986 79.3673 11.4199 78.7373 11.6626 78.14C11.9053 77.5333 12.2413 76.9967 12.6706 76.53C13.0999 76.054 13.6039 75.6807 14.1826 75.41C14.7706 75.13 15.4053 74.99 16.0866 74.99C16.7959 74.99 17.4399 75.1347 18.0186 75.424C18.6066 75.7133 19.1059 76.1007 19.5166 76.586C19.9366 77.0713 20.2586 77.6127 20.4826 78.21C20.7159 78.8073 20.8326 79.4187 20.8326 80.044C20.8326 80.7067 20.7113 81.3413 20.4686 81.948C20.2353 82.5453 19.9039 83.082 19.4746 83.558C19.0453 84.0247 18.5366 84.3933 17.9486 84.664C17.3699 84.9347 16.7399 85.07 16.0586 85.07ZM12.8946 80.03C12.8946 80.4967 12.9693 80.9493 13.1186 81.388C13.2679 81.8267 13.4779 82.2187 13.7486 82.564C14.0286 82.9 14.3646 83.166 14.7566 83.362C15.1486 83.558 15.5873 83.656 16.0726 83.656C16.5766 83.656 17.0246 83.5533 17.4166 83.348C17.8086 83.1427 18.1353 82.8673 18.3966 82.522C18.6673 82.1673 18.8726 81.7753 19.0126 81.346C19.1526 80.9073 19.2226 80.4687 19.2226 80.03C19.2226 79.5633 19.1479 79.1153 18.9986 78.686C18.8586 78.2473 18.6486 77.86 18.3686 77.524C18.0886 77.1787 17.7526 76.908 17.3606 76.712C16.9779 76.516 16.5486 76.418 16.0726 76.418C15.5686 76.418 15.1206 76.5207 14.7286 76.726C14.3366 76.9313 14.0053 77.2067 13.7346 77.552C13.4639 77.8973 13.2539 78.2847 13.1046 78.714C12.9646 79.1433 12.8946 79.582 12.8946 80.03ZM22.4559 85V75.06H24.0239V83.614H29.3579V85H22.4559ZM34.4613 85.07C33.6679 85.07 32.9959 84.9347 32.4453 84.664C31.9039 84.3933 31.4653 84.0247 31.1293 83.558C30.8026 83.0913 30.5599 82.5593 30.4013 81.962C30.2519 81.3647 30.1773 80.744 30.1773 80.1V75.06H31.7453V80.1C31.7453 80.5573 31.7919 81.0007 31.8853 81.43C31.9786 81.85 32.1279 82.228 32.3333 82.564C32.5386 82.9 32.8139 83.166 33.1593 83.362C33.5139 83.558 33.9479 83.656 34.4613 83.656C34.9839 83.656 35.4179 83.558 35.7633 83.362C36.1179 83.1567 36.3933 82.886 36.5893 82.55C36.7946 82.2047 36.9439 81.822 37.0373 81.402C37.1306 80.982 37.1773 80.548 37.1773 80.1V75.06H38.7593V80.1C38.7593 80.7813 38.6753 81.4253 38.5073 82.032C38.3486 82.6293 38.0966 83.1567 37.7513 83.614C37.4153 84.062 36.9766 84.4167 36.4353 84.678C35.8939 84.9393 35.2359 85.07 34.4613 85.07ZM49.2026 85V77.916L46.2766 83.292H45.3526L42.4126 77.916V85H40.8446V75.06H42.5246L45.8146 81.136L49.1046 75.06H50.7846V85H49.2026ZM54.5943 77.972V85H53.0263V75.06H54.3143L59.9423 82.242V75.074H61.5243V85H60.1523L54.5943 77.972Z" fill="#8D53C4"/>
</svg>
