<svg width="64" height="88" viewBox="0 0 64 88" fill="none" xmlns="http://www.w3.org/2000/svg">
<path d="M17.6 16C17.1756 16 16.7687 16.1686 16.4686 16.4686C16.1685 16.7687 16 17.1757 16 17.6C16 18.0244 16.1685 18.4313 16.4686 18.7314C16.7687 19.0314 17.1756 19.2 17.6 19.2H46.4C46.8243 19.2 47.2313 19.0314 47.5313 18.7314C47.8314 18.4313 48 18.0244 48 17.6C48 17.1757 47.8314 16.7687 47.5313 16.4686C47.2313 16.1686 46.8243 16 46.4 16H17.6ZM20.8 35.2C22.073 35.2 23.2939 34.6943 24.1941 33.7941C25.0943 32.8939 25.6 31.673 25.6 30.4C25.6 29.127 25.0943 27.9061 24.1941 27.0059C23.2939 26.1057 22.073 25.6 20.8 25.6C19.5269 25.6 18.306 26.1057 17.4059 27.0059C16.5057 27.9061 16 29.127 16 30.4C16 31.673 16.5057 32.8939 17.4059 33.7941C18.306 34.6943 19.5269 35.2 20.8 35.2ZM20.8 32C20.3756 32 19.9687 31.8314 19.6686 31.5314C19.3685 31.2313 19.2 30.8244 19.2 30.4C19.2 29.9757 19.3685 29.5687 19.6686 29.2686C19.9687 28.9686 20.3756 28.8 20.8 28.8C21.2243 28.8 21.6313 28.9686 21.9313 29.2686C22.2314 29.5687 22.4 29.9757 22.4 30.4C22.4 30.8244 22.2314 31.2313 21.9313 31.5314C21.6313 31.8314 21.2243 32 20.8 32ZM25.6 43.2C25.6 44.473 25.0943 45.6939 24.1941 46.5941C23.2939 47.4943 22.073 48 20.8 48C19.5269 48 18.306 47.4943 17.4059 46.5941C16.5057 45.6939 16 44.473 16 43.2C16 41.927 16.5057 40.7061 17.4059 39.8059C18.306 38.9057 19.5269 38.4 20.8 38.4C22.073 38.4 23.2939 38.9057 24.1941 39.8059C25.0943 40.7061 25.6 41.927 25.6 43.2ZM22.4 43.2C22.4 42.7757 22.2314 42.3687 21.9313 42.0686C21.6313 41.7686 21.2243 41.6 20.8 41.6C20.3756 41.6 19.9687 41.7686 19.6686 42.0686C19.3685 42.3687 19.2 42.7757 19.2 43.2C19.2 43.6244 19.3685 44.0313 19.6686 44.3314C19.9687 44.6314 20.3756 44.8 20.8 44.8C21.2243 44.8 21.6313 44.6314 21.9313 44.3314C22.2314 44.0313 22.4 43.6244 22.4 43.2ZM28.8 30.4C28.8 29.9757 28.9685 29.5687 29.2686 29.2686C29.5687 28.9686 29.9756 28.8 30.4 28.8H46.4C46.8243 28.8 47.2313 28.9686 47.5313 29.2686C47.8314 29.5687 48 29.9757 48 30.4C48 30.8244 47.8314 31.2313 47.5313 31.5314C47.2313 31.8314 46.8243 32 46.4 32H30.4C29.9756 32 29.5687 31.8314 29.2686 31.5314C28.9685 31.2313 28.8 30.8244 28.8 30.4ZM30.4 41.6C29.9756 41.6 29.5687 41.7686 29.2686 42.0686C28.9685 42.3687 28.8 42.7757 28.8 43.2C28.8 43.6244 28.9685 44.0313 29.2686 44.3314C29.5687 44.6314 29.9756 44.8 30.4 44.8H46.4C46.8243 44.8 47.2313 44.6314 47.5313 44.3314C47.8314 44.0313 48 43.6244 48 43.2C48 42.7757 47.8314 42.3687 47.5313 42.0686C47.2313 41.7686 46.8243 41.6 46.4 41.6H30.4ZM19.2 9.60001C16.6539 9.60001 14.2121 10.6114 12.4118 12.4118C10.6114 14.2121 9.59998 16.6539 9.59998 19.2V44.8C9.59998 47.3461 10.6114 49.7879 12.4118 51.5882C14.2121 53.3886 16.6539 54.4 19.2 54.4H44.8C47.3461 54.4 49.7879 53.3886 51.5882 51.5882C53.3886 49.7879 54.4 47.3461 54.4 44.8V19.2C54.4 16.6539 53.3886 14.2121 51.5882 12.4118C49.7879 10.6114 47.3461 9.60001 44.8 9.60001H19.2ZM12.8 19.2C12.8 17.5026 13.4743 15.8748 14.6745 14.6745C15.8747 13.4743 17.5026 12.8 19.2 12.8H44.8C46.4974 12.8 48.1252 13.4743 49.3255 14.6745C50.5257 15.8748 51.2 17.5026 51.2 19.2V44.8C51.2 46.4974 50.5257 48.1253 49.3255 49.3255C48.1252 50.5257 46.4974 51.2 44.8 51.2H19.2C17.5026 51.2 15.8747 50.5257 14.6745 49.3255C13.4743 48.1253 12.8 46.4974 12.8 44.8V19.2Z" fill="#8D53C4"/>
<path d="M13.1659 85V75.06H19.7879V76.446H14.7339V79.414H18.9619V80.716H14.7339V85H13.1659ZM25.2393 85.07C24.5206 85.07 23.8719 84.93 23.2933 84.65C22.7146 84.37 22.2153 83.992 21.7953 83.516C21.3753 83.0307 21.0486 82.4893 20.8153 81.892C20.5913 81.2853 20.4793 80.6647 20.4793 80.03C20.4793 79.3673 20.6006 78.7373 20.8433 78.14C21.0859 77.5333 21.4219 76.9967 21.8513 76.53C22.2806 76.054 22.7846 75.6807 23.3633 75.41C23.9513 75.13 24.5859 74.99 25.2673 74.99C25.9766 74.99 26.6206 75.1347 27.1993 75.424C27.7873 75.7133 28.2866 76.1007 28.6973 76.586C29.1173 77.0713 29.4393 77.6127 29.6633 78.21C29.8966 78.8073 30.0133 79.4187 30.0133 80.044C30.0133 80.7067 29.8919 81.3413 29.6493 81.948C29.4159 82.5453 29.0846 83.082 28.6553 83.558C28.2259 84.0247 27.7173 84.3933 27.1293 84.664C26.5506 84.9347 25.9206 85.07 25.2393 85.07ZM22.0753 80.03C22.0753 80.4967 22.1499 80.9493 22.2993 81.388C22.4486 81.8267 22.6586 82.2187 22.9293 82.564C23.2093 82.9 23.5453 83.166 23.9373 83.362C24.3293 83.558 24.7679 83.656 25.2533 83.656C25.7573 83.656 26.2053 83.5533 26.5973 83.348C26.9893 83.1427 27.3159 82.8673 27.5773 82.522C27.8479 82.1673 28.0533 81.7753 28.1933 81.346C28.3333 80.9073 28.4033 80.4687 28.4033 80.03C28.4033 79.5633 28.3286 79.1153 28.1793 78.686C28.0393 78.2473 27.8293 77.86 27.5493 77.524C27.2693 77.1787 26.9333 76.908 26.5413 76.712C26.1586 76.516 25.7293 76.418 25.2533 76.418C24.7493 76.418 24.3013 76.5207 23.9093 76.726C23.5173 76.9313 23.1859 77.2067 22.9153 77.552C22.6446 77.8973 22.4346 78.2847 22.2853 78.714C22.1453 79.1433 22.0753 79.582 22.0753 80.03ZM31.6366 85V75.06H35.9626C36.4106 75.06 36.8213 75.1533 37.1946 75.34C37.5679 75.5267 37.8899 75.774 38.1606 76.082C38.4406 76.39 38.6553 76.7353 38.8046 77.118C38.9633 77.5007 39.0426 77.8927 39.0426 78.294C39.0426 78.7327 38.9633 79.1527 38.8046 79.554C38.6459 79.9553 38.4173 80.3007 38.1186 80.59C37.8293 80.8793 37.4886 81.0893 37.0966 81.22L39.4346 85H37.6706L35.5146 81.542H33.2046V85H31.6366ZM33.2046 80.156H35.9486C36.2379 80.156 36.4946 80.072 36.7186 79.904C36.9426 79.736 37.1199 79.512 37.2506 79.232C37.3813 78.9427 37.4466 78.63 37.4466 78.294C37.4466 77.9487 37.3719 77.6407 37.2226 77.37C37.0733 77.09 36.8773 76.866 36.6346 76.698C36.4013 76.53 36.1446 76.446 35.8646 76.446H33.2046V80.156ZM49.2505 85V77.916L46.3245 83.292H45.4005L42.4605 77.916V85H40.8925V75.06H42.5725L45.8625 81.136L49.1525 75.06H50.8325V85H49.2505Z" fill="#8D53C4"/>
</svg>
