<svg width="64" height="88" viewBox="0 0 64 88" fill="none" xmlns="http://www.w3.org/2000/svg">
<path d="M18.6666 29.3333H29.3333V21.3333C29.3333 20.6261 29.6143 19.9478 30.1144 19.4477C30.6145 18.9476 31.2927 18.6667 32 18.6667C32.7072 18.6667 33.3855 18.9476 33.8856 19.4477C34.3857 19.9478 34.6666 20.6261 34.6666 21.3333V42.6667C34.6666 43.3739 34.3857 44.0522 33.8856 44.5523C33.3855 45.0524 32.7072 45.3333 32 45.3333C31.2927 45.3333 30.6145 45.0524 30.1144 44.5523C29.6143 44.0522 29.3333 43.3739 29.3333 42.6667V34.6667H18.6666V42.6667C18.6666 43.3739 18.3857 44.0522 17.8856 44.5523C17.3855 45.0524 16.7072 45.3333 16 45.3333C15.2927 45.3333 14.6145 45.0524 14.1144 44.5523C13.6143 44.0522 13.3333 43.3739 13.3333 42.6667V21.3333C13.3333 20.6261 13.6143 19.9478 14.1144 19.4477C14.6145 18.9476 15.2927 18.6667 16 18.6667C16.7072 18.6667 17.3855 18.9476 17.8856 19.4477C18.3857 19.9478 18.6666 20.6261 18.6666 21.3333V29.3333ZM44.0533 31.4107H40V26.6667H48.96V45.3333H44.0533V31.4107Z" fill="#8D53C4"/>
<path d="M13.282 75.06V85H11.7V80.618H6.688V85H5.12V75.06H6.688V79.218H11.7V75.06H13.282ZM22.3423 83.614V85H15.5243V75.06H22.2163V76.446H17.0923V79.274H21.5303V80.576H17.0923V83.614H22.3423ZM26.8298 75.06H28.3138L32.1778 85H30.5258L29.4758 82.298H25.6398L24.6038 85H22.9378L26.8298 75.06ZM29.1678 81.136L27.5718 76.782L25.9198 81.136H29.1678ZM33.4071 85V75.06H36.9351C38.0084 75.06 38.9044 75.284 39.6231 75.732C40.3418 76.1707 40.8784 76.768 41.2331 77.524C41.5971 78.2707 41.7791 79.1013 41.7791 80.016C41.7791 81.024 41.5784 81.9013 41.1771 82.648C40.7851 83.3947 40.2251 83.9733 39.4971 84.384C38.7691 84.7947 37.9151 85 36.9351 85H33.4071ZM40.1831 80.016C40.1831 79.316 40.0524 78.7 39.7911 78.168C39.5391 77.6267 39.1704 77.2067 38.6851 76.908C38.2091 76.6 37.6258 76.446 36.9351 76.446H34.9751V83.614H36.9351C37.6351 83.614 38.2231 83.4553 38.6991 83.138C39.1844 82.8207 39.5531 82.3913 39.8051 81.85C40.0571 81.3087 40.1831 80.6973 40.1831 80.016ZM50.2466 83.614V85H43.4286V75.06H50.1206V76.446H44.9966V79.274H49.4346V80.576H44.9966V83.614H50.2466ZM51.8641 85V75.06H56.1901C56.6381 75.06 57.0488 75.1533 57.4221 75.34C57.7955 75.5267 58.1175 75.774 58.3881 76.082C58.6681 76.39 58.8828 76.7353 59.0321 77.118C59.1908 77.5007 59.2701 77.8927 59.2701 78.294C59.2701 78.7327 59.1908 79.1527 59.0321 79.554C58.8735 79.9553 58.6448 80.3007 58.3461 80.59C58.0568 80.8793 57.7161 81.0893 57.3241 81.22L59.6621 85H57.8981L55.7421 81.542H53.4321V85H51.8641ZM53.4321 80.156H56.1761C56.4655 80.156 56.7221 80.072 56.9461 79.904C57.1701 79.736 57.3475 79.512 57.4781 79.232C57.6088 78.9427 57.6741 78.63 57.6741 78.294C57.6741 77.9487 57.5995 77.6407 57.4501 77.37C57.3008 77.09 57.1048 76.866 56.8621 76.698C56.6288 76.53 56.3721 76.446 56.0921 76.446H53.4321V80.156Z" fill="#8D53C4"/>
</svg>
